<svg width="16" height="18" viewBox="0 0 16 18" fill="none" xmlns="http://www.w3.org/2000/svg">
<path d="M13.7145 11.3835V7.96353C13.7145 5.42321 12.1146 3.20807 9.91176 2.38066C9.93748 2.25 9.95174 2.11648 9.95174 1.98291C9.95179 0.888403 9.07752 0 8.00043 0C6.92333 0 6.04906 0.888403 6.04906 1.98291C6.04906 2.11357 6.06333 2.24418 6.08618 2.36903C5.32909 2.64194 4.62911 3.0745 4.032 3.66095C2.90634 4.76418 2.28637 6.24772 2.28637 7.83869V11.3835C2.28637 11.5084 2.18637 11.6129 2.06065 11.6129C1.00641 11.6129 0.10642 12.42 0.00927858 13.4477C-0.0450174 14.0197 0.140724 14.5887 0.520701 15.0126C0.897815 15.4335 1.43782 15.6774 2.00062 15.6774H5.44623C5.58907 16.981 6.68048 18 8.00043 18C9.32037 18 10.4118 16.981 10.5546 15.6774H14.0002C14.5631 15.6774 15.103 15.4335 15.4802 15.0126C15.8573 14.5887 16.043 14.0197 15.9916 13.4477C15.8944 12.42 14.9916 11.6129 13.9402 11.6129C13.8145 11.6128 13.7145 11.5112 13.7145 11.3835ZM8.00043 1.16127C8.4461 1.16127 8.80895 1.52998 8.80895 1.98286C8.80895 2.02058 8.80322 2.05544 8.7975 2.09316C8.60322 2.06412 8.40607 2.0438 8.20893 2.03798C7.86893 2.02635 7.53466 2.04962 7.20326 2.09607C7.19753 2.05835 7.19181 2.02349 7.19181 1.98577C7.1919 1.52998 7.55475 1.16127 8.00043 1.16127ZM8.00043 16.8386C7.3119 16.8386 6.73478 16.3393 6.60047 15.6774H9.40034C9.26612 16.3393 8.689 16.8386 8.00043 16.8386ZM14.8545 13.558C14.8773 13.8077 14.8002 14.0487 14.6373 14.2316C14.4688 14.4145 14.2459 14.5161 14.0002 14.5161H2.00067C1.75496 14.5161 1.53214 14.4144 1.36639 14.2316C1.20069 14.0487 1.12354 13.8077 1.14639 13.558C1.18638 13.1196 1.58925 12.7742 2.06065 12.7742C2.81492 12.7742 3.42916 12.15 3.42916 11.3835V7.83869C3.42916 6.56707 3.92627 5.37968 4.82626 4.49709C5.68621 3.65227 6.8062 3.19353 8.00043 3.19353C8.05758 3.19353 8.11183 3.19353 8.16899 3.19644C10.5946 3.28351 12.5717 5.42321 12.5717 7.96353V11.3835C12.5717 12.15 13.1859 12.7742 13.9402 12.7742C14.4116 12.7742 14.8116 13.1196 14.8545 13.558Z" fill="#74767E"/>
</svg>
