<svg width="31" height="31" viewBox="0 0 31 31" fill="none" xmlns="http://www.w3.org/2000/svg">
<path d="M30.2349 15.5173C30.2349 23.6734 23.6231 30.2852 15.467 30.2852C7.31095 30.2852 0.699158 23.6734 0.699158 15.5173C0.699158 7.36125 7.31095 0.749451 15.467 0.749451C23.6231 0.749451 30.2349 7.36125 30.2349 15.5173Z" fill="white"/>
<path fill-rule="evenodd" clip-rule="evenodd" d="M12.9051 8.6828C10.5457 8.6828 8.633 10.5955 8.633 12.9549V18.295C8.633 20.6544 10.5457 22.5671 12.9051 22.5671H18.2452C20.6046 22.5671 22.5173 20.6544 22.5173 18.295V12.9549C22.5173 10.5955 20.6046 8.6828 18.2452 8.6828H12.9051ZM15.5752 11.8869C13.5107 11.8869 11.8371 13.5605 11.8371 15.625C11.8371 17.6894 13.5107 19.363 15.5752 19.363C17.6396 19.363 19.3132 17.6894 19.3132 15.625C19.3132 13.5605 17.6396 11.8869 15.5752 11.8869ZM19.5421 12.6497C20.0898 12.6497 20.5338 12.2057 20.5338 11.658C20.5338 11.1103 20.0898 10.6663 19.5421 10.6663C18.9944 10.6663 18.5504 11.1103 18.5504 11.658C18.5504 12.2057 18.9944 12.6497 19.5421 12.6497Z" fill="#5D5FEF"/>
</svg>
