<svg width="30" height="30" viewBox="0 0 30 30" fill="none" xmlns="http://www.w3.org/2000/svg">
<path d="M29.5357 15.1311C29.5357 23.2872 22.9239 29.899 14.7679 29.899C6.6118 29.899 0 23.2872 0 15.1311C0 6.97505 6.6118 0.363251 14.7679 0.363251C22.9239 0.363251 29.5357 6.97505 29.5357 15.1311Z" fill="white"/>
<path d="M7.91124 14.8788L11.1868 16.1013L12.4546 20.1786C12.5357 20.4397 12.855 20.5363 13.067 20.363L14.8928 18.8745C15.0842 18.7186 15.3568 18.7108 15.5568 18.856L18.85 21.2469C19.0767 21.4117 19.3979 21.2875 19.4548 21.0135L21.8672 9.40935C21.9293 9.11007 21.6352 8.8604 21.3502 8.97062L7.9074 14.1565C7.57566 14.2844 7.57855 14.7541 7.91124 14.8788ZM12.2503 15.4505L18.6519 11.5077C18.7669 11.4371 18.8853 11.5927 18.7865 11.6843L13.5033 16.5953C13.3176 16.7681 13.1978 16.9995 13.1639 17.2506L12.9839 18.5842C12.9601 18.7623 12.71 18.78 12.6608 18.6077L11.9687 16.1756C11.8894 15.8982 12.0049 15.6019 12.2503 15.4505Z" fill="#5D5FEF"/>
</svg>
