<svg width="137" height="20" viewBox="0 0 137 20" fill="none" xmlns="http://www.w3.org/2000/svg">
<path d="M7.78544 20C12.0118 20 15.0148 17.8022 15.0148 14.0934C15.0148 10.0275 11.706 9.01099 8.75862 8.13187C5.72786 7.22528 5.25517 6.62088 5.25517 5.74176C5.25517 4.97253 5.9503 4.28571 7.34055 4.28571C9.12008 4.28571 10.0377 5.13736 10.705 6.51099L14.4587 4.34066C13.0406 1.51099 10.5381 0 7.34055 0C3.97613 0 0.806349 2.14286 0.806349 5.85165C0.806349 9.53297 3.64247 10.9066 6.53421 11.7033C9.45374 12.5 10.5659 12.967 10.5659 14.1484C10.5659 14.8901 10.0377 15.7143 7.92446 15.7143C5.72786 15.7143 4.53224 14.6429 3.83711 13.0495L0 15.2473C1.0844 18.0769 3.69808 20 7.78544 20Z" fill="white"/>
<path d="M21.5511 15.3846V11.978H28.5024V7.8022H21.5511V4.61539H29.1976V0.384615H17.1023V19.6154H29.3366V15.3846H21.5511Z" fill="white"/>
<path d="M36.2955 15.3846V0.384615H31.8466V19.6154H43.2467V15.3846H36.2955Z" fill="white"/>
<path d="M79.9843 0.384614H75.5354L70.2525 8.92857L64.9695 0.384614H60.5207L58.7829 19.6154H63.2317L64.1006 7.57555L70.0022 16.5934H70.5027L76.4044 7.57555L78.1422 19.6154H82.591L79.9843 0.384614Z" fill="white"/>
<path fill-rule="evenodd" clip-rule="evenodd" d="M57.1395 4.61538L57.5219 0.384614H45.2061V19.6154H49.655V12.5549H56.4221L56.8044 8.32417H49.655V4.61538H57.1395Z" fill="white"/>
<path d="M98.4997 19.6154H103.366L96.7479 0.384614H91.0757L84.4581 19.6154H89.324L90.2972 16.5934H97.5265L98.4997 19.6154ZM91.6318 12.4725L93.9118 5.41209L96.1918 12.4725H91.6318Z" fill="white"/>
<path d="M112.811 0.384614H105.025V19.6154H112.811C118.177 19.6154 122.264 15.4396 122.264 10C122.264 4.56044 118.177 0.384614 112.811 0.384614ZM112.811 15.3846H109.474V4.61538H112.811C115.869 4.61538 117.982 6.7033 117.982 10C117.982 13.2967 115.869 15.3846 112.811 15.3846Z" fill="white"/>
<path d="M129.215 15.3846V11.978H136.166V7.8022H129.215V4.61538H136.861V0.384614H124.766V19.6154H137V15.3846H129.215Z" fill="white"/>
</svg>
