<svg width="30" height="30" viewBox="0 0 30 30" fill="none" xmlns="http://www.w3.org/2000/svg">
<circle cx="15.1663" cy="14.7679" r="14.7679" fill="white"/>
<path d="M19.9479 15.9145C19.7006 15.6192 19.7714 15.4878 19.9479 15.2238C19.9511 15.2207 21.9925 12.5529 22.2028 11.6481L22.2041 11.6475C22.3086 11.3178 22.2041 11.0755 21.6987 11.0755H20.0263C19.6006 11.0755 19.4043 11.2835 19.2991 11.5161C19.2991 11.5161 18.4477 13.4438 17.2431 14.6933C16.8543 15.0544 16.6746 15.1701 16.4624 15.1701C16.3579 15.1701 16.1954 15.0544 16.1954 14.7247V11.6475C16.1954 11.2521 16.0762 11.0755 15.7237 11.0755H13.0941C12.8271 11.0755 12.6684 11.2599 12.6684 11.4317C12.6684 11.8067 13.2707 11.8929 13.3331 12.9477V15.2364C13.3331 15.7379 13.2369 15.8301 13.0234 15.8301C12.4549 15.8301 11.0751 13.8947 10.2574 11.6795C10.0923 11.2497 9.93108 11.0761 9.50216 11.0761H7.82918C7.35182 11.0761 7.25558 11.2841 7.25558 11.5167C7.25558 11.9278 7.82408 13.9718 9.89921 16.6722C11.2822 18.5155 13.2299 19.5143 15.0016 19.5143C16.0666 19.5143 16.1966 19.2925 16.1966 18.9109C16.1966 17.1496 16.1004 16.9832 16.6338 16.9832C16.8811 16.9832 17.3068 17.099 18.3011 17.9881C19.4374 19.0423 19.6242 19.5143 20.2602 19.5143H21.9326C22.4093 19.5143 22.6508 19.2925 22.5119 18.8548C22.1939 17.9344 20.0448 16.0411 19.9479 15.9145Z" fill="#5D5FEF"/>
</svg>
