<svg width="175" height="13" viewBox="0 0 175 13" fill="none" xmlns="http://www.w3.org/2000/svg">
<path d="M6.4 12.192C9.6 12.192 12.192 9.6 12.192 6.4C12.192 3.2 9.6 0.608 6.4 0.608C3.2 0.608 0.608 3.2 0.608 6.4C0.608 9.6 3.2 12.192 6.4 12.192ZM6.4 11.712C3.488 11.712 1.12 9.344 1.12 6.4C1.12 3.456 3.488 1.088 6.4 1.088C9.296 1.088 11.664 3.456 11.664 6.4C11.664 9.344 9.296 11.712 6.4 11.712ZM6.448 9.488C7.584 9.488 8.592 8.896 9.104 7.984L8 7.328C7.728 7.92 7.104 8.24 6.432 8.24C5.296 8.24 4.608 7.344 4.608 6.4C4.608 5.456 5.296 4.56 6.432 4.56C7.088 4.56 7.712 4.864 7.984 5.456L9.088 4.816C8.576 3.888 7.584 3.312 6.448 3.312C4.704 3.312 3.312 4.688 3.312 6.4C3.312 8.112 4.704 9.488 6.448 9.488ZM21.5973 12.208C23.8853 12.208 25.4693 10.96 25.4693 8.992C25.4693 6.832 23.6293 6.256 21.6773 5.616C20.1093 5.12 19.3253 4.736 19.3253 3.696C19.3253 2.672 20.1573 2.032 21.3573 2.032C22.7173 2.032 23.5013 2.8 23.9013 3.76L25.1493 3.04C24.5253 1.632 23.1973 0.591999 21.3573 0.591999C19.4853 0.591999 17.8372 1.744 17.8372 3.76C17.8372 5.84 19.5653 6.4 21.3573 6.976C23.0053 7.488 23.9973 7.872 23.9973 9.024C23.9973 10.032 23.2133 10.752 21.6293 10.752C19.9973 10.752 19.0373 9.952 18.6373 8.72L17.3573 9.456C17.9493 11.136 19.4693 12.208 21.5973 12.208ZM28.6411 10.592V7.04H33.3611V5.648H28.6411V2.208H33.7611V0.799999H27.1531V12H33.8411V10.592H28.6411ZM37.1255 10.592V0.799999H35.6375V12H41.9575V10.592H37.1255ZM49.898 2.208V0.799999H43.45V12H44.938V7.248H49.69V5.84H44.938V2.208H49.898ZM62.18 0.799999H60.5L56.948 6.72L53.38 0.799999H51.7V12H53.188V3.264L56.852 9.344H57.044L60.708 3.248V12H62.18V0.799999ZM71.951 12H73.535L69.359 0.799999H67.679L63.503 12H65.087L65.999 9.488H71.039L71.951 12ZM66.511 8.096L68.511 2.576L70.527 8.096H66.511ZM79.2243 0.799999H74.8563V12H79.2243C82.3123 12 84.5363 9.504 84.5363 6.4C84.5363 3.296 82.3123 0.799999 79.2243 0.799999ZM79.2243 10.592H76.3443V2.208H79.2243C81.5283 2.208 83.1123 4.032 83.1123 6.4C83.1123 8.768 81.5283 10.592 79.2243 10.592ZM87.8286 10.592V7.04H92.5486V5.648H87.8286V2.208H92.9486V0.799999H86.3406V12H93.0286V10.592H87.8286ZM95.561 12.176C96.153 12.176 96.601 11.712 96.601 11.136C96.601 10.56 96.153 10.096 95.561 10.096C94.985 10.096 94.521 10.56 94.521 11.136C94.521 11.712 94.985 12.176 95.561 12.176ZM104.29 0.799999H96.2099V2.208H99.5059V12H100.978V2.208H104.29V0.799999ZM107.251 10.592V7.04H111.971V5.648H107.251V2.208H112.371V0.799999H105.763V12H112.451V10.592H107.251ZM121.795 12H123.379L119.203 0.799999H117.523L113.347 12H114.931L115.843 9.488H120.883L121.795 12ZM116.355 8.096L118.355 2.576L120.371 8.096H116.355ZM135.18 0.799999H133.5L129.948 6.72L126.38 0.799999H124.7V12H126.188V3.264L129.852 9.344H130.044L133.708 3.248V12H135.18V0.799999ZM140.951 12H148.183V10.56H143.111L145.975 7.712C147.079 6.608 147.975 5.408 147.975 4.016C147.975 1.808 146.231 0.591999 144.487 0.591999C143.031 0.591999 141.671 1.312 140.951 2.8L142.199 3.536C142.679 2.528 143.479 2.032 144.503 2.032C145.543 2.032 146.487 2.72 146.487 4.032C146.487 4.976 145.783 5.872 144.903 6.752L140.951 10.784V12ZM153.696 12.208C156.48 12.208 158.016 9.856 158.016 6.4C158.016 2.944 156.48 0.591999 153.696 0.591999C150.928 0.591999 149.376 2.944 149.376 6.4C149.376 9.856 150.928 12.208 153.696 12.208ZM153.696 10.752C151.888 10.752 150.864 9.184 150.864 6.4C150.864 3.616 151.888 2.032 153.696 2.032C155.504 2.032 156.544 3.616 156.544 6.4C156.544 9.184 155.504 10.752 153.696 10.752ZM159.107 12H166.339V10.56H161.267L164.131 7.712C165.235 6.608 166.131 5.408 166.131 4.016C166.131 1.808 164.387 0.591999 162.643 0.591999C161.187 0.591999 159.827 1.312 159.107 2.8L160.355 3.536C160.835 2.528 161.635 2.032 162.659 2.032C163.699 2.032 164.643 2.72 164.643 4.032C164.643 4.976 163.939 5.872 163.059 6.752L159.107 10.784V12ZM167.545 12H174.777V10.56H169.705L172.569 7.712C173.673 6.608 174.569 5.408 174.569 4.016C174.569 1.808 172.825 0.591999 171.081 0.591999C169.625 0.591999 168.265 1.312 167.545 2.8L168.793 3.536C169.273 2.528 170.073 2.032 171.097 2.032C172.137 2.032 173.081 2.72 173.081 4.032C173.081 4.976 172.377 5.872 171.497 6.752L167.545 10.784V12Z" fill="white"/>
</svg>
