<svg width="16" height="18" viewBox="0 0 16 18" fill="none" xmlns="http://www.w3.org/2000/svg">
<path fill-rule="evenodd" clip-rule="evenodd" d="M8 2C6.34315 2 5 3.34315 5 5C5 6.65685 6.34315 8 8 8C9.65685 8 11 6.65685 11 5C11 3.34315 9.65685 2 8 2ZM3 5C3 2.23858 5.23858 0 8 0C10.7614 0 13 2.23858 13 5C13 7.76142 10.7614 10 8 10C5.23858 10 3 7.76142 3 5Z" fill="#EF5DA8"/>
<path fill-rule="evenodd" clip-rule="evenodd" d="M2.29768 10.6846C3.78447 8.98545 5.8319 8 8 8C10.1681 8 12.2155 8.98545 13.7023 10.6846C15.1854 12.3796 16 14.653 16 17C16 17.5523 15.5523 18 15 18C14.4477 18 14 17.5523 14 17C14 15.1036 13.3396 13.3073 12.1972 12.0016C11.0585 10.7003 9.54493 10 8 10C6.45507 10 4.94154 10.7003 3.80283 12.0016C2.66039 13.3073 2 15.1036 2 17C2 17.5523 1.55228 18 1 18C0.447715 18 0 17.5523 0 17C0 14.653 0.81461 12.3796 2.29768 10.6846Z" fill="#EF5DA8"/>
</svg>
