<svg width="22" height="21" viewBox="0 0 22 21" fill="none" xmlns="http://www.w3.org/2000/svg">
<path d="M10.8029 1.12875C10.8264 1.07411 10.8551 1.04777 10.8806 1.03187C10.9106 1.0132 10.952 1 11 1C11.048 1 11.0894 1.0132 11.1194 1.03187C11.1449 1.04777 11.1736 1.07411 11.1972 1.12875L13.4083 6.25292C13.7294 6.99692 14.4314 7.50522 15.2375 7.57983L20.804 8.09506C20.9941 8.11266 21.064 8.34378 20.9262 8.46454L16.7263 12.1467C16.1171 12.6808 15.8483 13.5051 16.0269 14.2958L17.256 19.7384C17.2691 19.7963 17.2614 19.8339 17.2504 19.861C17.2375 19.893 17.2121 19.9275 17.1736 19.9554C17.1351 19.9834 17.0939 19.9971 17.0583 19.9996C17.0279 20.0017 16.9886 19.9971 16.9367 19.9663L12.1298 17.1178C11.4333 16.7051 10.5667 16.7051 9.87021 17.1178L5.06334 19.9663C5.01139 19.9971 4.97206 20.0017 4.94167 19.9996C4.9061 19.9971 4.86488 19.9834 4.82638 19.9554C4.78787 19.9275 4.76255 19.893 4.74957 19.861C4.73858 19.8339 4.73088 19.7963 4.74395 19.7384L5.97309 14.2958C6.15167 13.5051 5.88289 12.6808 5.27371 12.1467L1.07376 8.46454C0.936011 8.34378 1.00592 8.11266 1.19599 8.09506L6.76252 7.57983C7.56859 7.50522 8.27063 6.99692 8.59169 6.25292L10.8029 1.12875Z" stroke="#2F2F2F" stroke-width="2"/>
</svg>
