<svg width="20" height="17" viewBox="0 0 20 17" fill="none" xmlns="http://www.w3.org/2000/svg">
<path d="M5.54426 12.7588L5.54427 12.7588C7.47413 14.3947 9.38576 15.5718 9.99929 15.9357C10.6099 15.571 12.5079 14.3943 14.4298 12.7593C15.7859 11.6057 16.8443 10.4838 17.594 9.42965L18.4089 10.0092L17.594 9.42964C18.5649 8.06448 18.9931 6.84549 18.9999 5.7939C19.0085 4.44956 18.4793 3.16156 17.5683 2.26054L17.5683 2.26052C16.7388 1.44018 15.6732 1 14.5661 1C13.0722 1 11.674 1.82307 10.8562 3.17833L10 4.59741L9.1438 3.17833C8.32609 1.82305 6.92787 1 5.43399 1C4.26316 1 3.15699 1.48587 2.31328 2.39686C1.48108 3.29546 1.00847 4.49994 1.00008 5.79944L5.54426 12.7588ZM5.54426 12.7588C4.18313 11.6051 3.12416 10.4835 2.37781 9.43023L2.3778 9.43022M5.54426 12.7588L2.3778 9.43022M2.3778 9.43022C1.4106 8.06533 0.993367 6.84853 1.00008 5.79948L2.3778 9.43022Z" stroke="#2F2F2F" stroke-width="2"/>
</svg>
