<svg width="22" height="22" viewBox="0 0 22 22" fill="none" xmlns="http://www.w3.org/2000/svg">
<path d="M20.6536 13.1925L18.7658 11.755C18.7906 11.5333 18.8103 11.2742 18.8103 11C18.8103 10.7258 18.7898 10.4667 18.7658 10.245L20.6553 8.80668C21.0062 8.53668 21.1028 8.0575 20.8786 7.65836L18.9155 4.35086C18.7007 3.97004 18.219 3.79586 17.78 3.95336L15.5525 4.82418C15.1263 4.52418 14.6788 4.27086 14.2158 4.06836L13.8769 1.76754C13.8213 1.33 13.4311 1 12.9698 1H9.03341C8.57215 1 8.18193 1.33 8.12718 1.75918L7.78746 4.06836C7.33903 4.26586 6.89835 4.51504 6.45249 4.82504L4.219 3.95172C3.792 3.78922 3.3059 3.9609 3.09198 4.34254L1.12632 7.65504C0.894427 8.03672 0.989415 8.53172 1.34883 8.80836L3.23659 10.245C3.20662 10.5267 3.1921 10.7709 3.1921 11C3.1921 11.2292 3.20667 11.4734 3.2349 11.755L1.34542 13.1942C0.995391 13.4642 0.899521 13.9433 1.12287 14.3425L3.08596 17.65C3.29905 18.03 3.77996 18.2033 4.22153 18.0475L6.44904 17.1767C6.87521 17.4759 7.32363 17.7292 7.78658 17.9325L8.12545 20.2325C8.18109 20.67 8.57131 21 9.03253 21H12.9689C13.4302 21 13.8204 20.67 13.8752 20.2408L14.2149 17.9325C14.6633 17.735 15.104 17.4858 15.5499 17.1758L17.7834 18.0491C18.2087 18.21 18.6964 18.04 18.9104 17.6583L20.8837 14.3341C21.102 13.9442 21.0061 13.465 20.6536 13.1925ZM20.1358 13.9258L18.0974 17.2741L15.6475 16.3158C15.5088 16.2616 15.3514 16.2825 15.2316 16.3691C14.701 16.7558 14.1884 17.0466 13.663 17.2558C13.5226 17.3116 13.4225 17.4358 13.4011 17.5825L12.969 20.1667L8.97521 20.1225L8.60123 17.5833C8.57897 17.4366 8.47973 17.3125 8.33937 17.2566C7.79255 17.0383 7.26627 16.7408 6.7742 16.3725C6.69803 16.315 6.60561 16.2858 6.51319 16.2858C6.45927 16.2858 6.40536 16.295 6.35317 16.3158L3.83299 17.2416L1.8699 13.9341C1.85193 13.9016 1.85534 13.8641 1.87587 13.8483L3.95277 12.2675C4.07086 12.1775 4.13248 12.0325 4.11366 11.8875C4.06829 11.5383 4.04776 11.2558 4.04776 11C4.04776 10.7441 4.06914 10.4625 4.11366 10.1125C4.13248 9.96664 4.07086 9.82246 3.95277 9.73246L1.86568 8.075L3.90407 4.72668L6.35406 5.685C6.49353 5.74 6.65013 5.71918 6.77079 5.63168C7.30048 5.24418 7.81393 4.95418 8.33937 4.745C8.47973 4.68832 8.57897 4.56418 8.60039 4.41832L9.03341 1.83332L13.028 1.87832L13.4011 4.41832C13.4234 4.565 13.5226 4.68914 13.663 4.745C14.209 4.9625 14.7352 5.26 15.2282 5.62918C15.3488 5.71918 15.5071 5.74086 15.6483 5.685L18.1685 4.75918L20.1316 8.06668C20.1496 8.09918 20.1462 8.13586 20.1256 8.15168L18.0487 9.7325C17.9306 9.8225 17.869 9.96668 17.8878 10.1125C17.9204 10.3658 17.9538 10.67 17.9538 11C17.9538 11.3308 17.9204 11.6342 17.8878 11.8875C17.869 12.0325 17.9306 12.1775 18.0487 12.2675L20.1231 13.8475C20.1453 13.865 20.1495 13.9025 20.1358 13.9258Z" fill="#2F2F2F"/>
<path d="M11.0008 6.83332C8.64147 6.83332 6.72201 8.7025 6.72201 11C6.72201 13.2975 8.64147 15.1667 11.0008 15.1667C13.36 15.1667 15.2795 13.2975 15.2795 11C15.2795 8.7025 13.36 6.83332 11.0008 6.83332ZM11.0008 14.3333C9.113 14.3333 7.57779 12.8383 7.57779 11C7.57779 9.16168 9.113 7.66668 11.0008 7.66668C12.8885 7.66668 14.4237 9.16168 14.4237 11C14.4237 12.8383 12.8885 14.3333 11.0008 14.3333Z" fill="#2F2F2F"/>
<path d="M20.6536 13.1925L18.7658 11.755C18.7906 11.5333 18.8103 11.2742 18.8103 11C18.8103 10.7258 18.7898 10.4667 18.7658 10.245L20.6553 8.80668C21.0062 8.53668 21.1028 8.0575 20.8786 7.65836L18.9155 4.35086C18.7007 3.97004 18.219 3.79586 17.78 3.95336L15.5525 4.82418C15.1263 4.52418 14.6788 4.27086 14.2158 4.06836L13.8769 1.76754C13.8213 1.33 13.4311 1 12.9698 1H9.03341C8.57215 1 8.18193 1.33 8.12718 1.75918L7.78746 4.06836C7.33903 4.26586 6.89835 4.51504 6.45249 4.82504L4.219 3.95172C3.792 3.78922 3.3059 3.9609 3.09198 4.34254L1.12632 7.65504C0.894427 8.03672 0.989415 8.53172 1.34883 8.80836L3.23659 10.245C3.20662 10.5267 3.1921 10.7709 3.1921 11C3.1921 11.2292 3.20667 11.4734 3.2349 11.755L1.34542 13.1942C0.995391 13.4642 0.899521 13.9433 1.12287 14.3425L3.08596 17.65C3.29905 18.03 3.77996 18.2033 4.22153 18.0475L6.44904 17.1767C6.87521 17.4759 7.32363 17.7292 7.78658 17.9325L8.12545 20.2325C8.18109 20.67 8.57131 21 9.03253 21H12.9689C13.4302 21 13.8204 20.67 13.8752 20.2408L14.2149 17.9325C14.6633 17.735 15.104 17.4858 15.5499 17.1758L17.7834 18.0491C18.2087 18.21 18.6964 18.04 18.9104 17.6583L20.8837 14.3341C21.102 13.9442 21.0061 13.465 20.6536 13.1925ZM20.1358 13.9258L18.0974 17.2741L15.6475 16.3158C15.5088 16.2616 15.3514 16.2825 15.2316 16.3691C14.701 16.7558 14.1884 17.0466 13.663 17.2558C13.5226 17.3116 13.4225 17.4358 13.4011 17.5825L12.969 20.1667L8.97521 20.1225L8.60123 17.5833C8.57897 17.4366 8.47973 17.3125 8.33937 17.2566C7.79255 17.0383 7.26627 16.7408 6.7742 16.3725C6.69803 16.315 6.60561 16.2858 6.51319 16.2858C6.45927 16.2858 6.40536 16.295 6.35317 16.3158L3.83299 17.2416L1.8699 13.9341C1.85193 13.9016 1.85534 13.8641 1.87587 13.8483L3.95277 12.2675C4.07086 12.1775 4.13248 12.0325 4.11366 11.8875C4.06829 11.5383 4.04776 11.2558 4.04776 11C4.04776 10.7441 4.06914 10.4625 4.11366 10.1125C4.13248 9.96664 4.07086 9.82246 3.95277 9.73246L1.86568 8.075L3.90407 4.72668L6.35406 5.685C6.49353 5.74 6.65013 5.71918 6.77079 5.63168C7.30048 5.24418 7.81393 4.95418 8.33937 4.745C8.47973 4.68832 8.57897 4.56418 8.60039 4.41832L9.03341 1.83332L13.028 1.87832L13.4011 4.41832C13.4234 4.565 13.5226 4.68914 13.663 4.745C14.209 4.9625 14.7352 5.26 15.2282 5.62918C15.3488 5.71918 15.5071 5.74086 15.6483 5.685L18.1685 4.75918L20.1316 8.06668C20.1496 8.09918 20.1462 8.13586 20.1256 8.15168L18.0487 9.7325C17.9306 9.8225 17.869 9.96668 17.8878 10.1125C17.9204 10.3658 17.9538 10.67 17.9538 11C17.9538 11.3308 17.9204 11.6342 17.8878 11.8875C17.869 12.0325 17.9306 12.1775 18.0487 12.2675L20.1231 13.8475C20.1453 13.865 20.1495 13.9025 20.1358 13.9258Z" stroke="#2F2F2F"/>
<path d="M11.0008 6.83332C8.64147 6.83332 6.72201 8.7025 6.72201 11C6.72201 13.2975 8.64147 15.1667 11.0008 15.1667C13.36 15.1667 15.2795 13.2975 15.2795 11C15.2795 8.7025 13.36 6.83332 11.0008 6.83332ZM11.0008 14.3333C9.113 14.3333 7.57779 12.8383 7.57779 11C7.57779 9.16168 9.113 7.66668 11.0008 7.66668C12.8885 7.66668 14.4237 9.16168 14.4237 11C14.4237 12.8383 12.8885 14.3333 11.0008 14.3333Z" stroke="#2F2F2F"/>
</svg>
