<svg width="20" height="18" viewBox="0 0 20 18" fill="none" xmlns="http://www.w3.org/2000/svg">
<path d="M4.24286 12.0488L1.60738 14.0638C0.949352 14.5669 0 14.0977 0 13.2693V0.926829C0 0.681019 0.10034 0.445276 0.278946 0.271462C0.457552 0.0976478 0.699794 0 0.952381 0H15.2381C15.4907 0 15.7329 0.0976478 15.9115 0.271462C16.0901 0.445276 16.1905 0.681019 16.1905 0.926829V12.0488H4.24286ZM3.58381 10.1951H14.2857V1.85366H1.90476V11.4788L3.58381 10.1951ZM6.66667 13.9024H16.4162L18.0952 15.1861V5.56098H19.0476C19.3002 5.56098 19.5424 5.65862 19.7211 5.83244C19.8997 6.00625 20 6.24199 20 6.4878V16.9767C20 17.805 19.0506 18.2742 18.3926 17.7711L15.7571 15.7561H7.61905C7.36646 15.7561 7.12422 15.6585 6.94561 15.4846C6.76701 15.3108 6.66667 15.0751 6.66667 14.8293V13.9024Z" fill="#2F2F2F"/>
</svg>
