<svg width="19" height="20" viewBox="0 0 19 20" fill="none" xmlns="http://www.w3.org/2000/svg">
<path d="M16.15 0H10.4499C10.198 0 9.95631 0.105357 9.77815 0.292893C9.59999 0.48043 9.4999 0.734783 9.4999 1C9.4999 1.26522 9.59999 1.51957 9.77815 1.70711C9.95631 1.89464 10.198 2 10.4499 2H16.15C16.4019 2 16.6436 2.10536 16.8217 2.29289C16.9999 2.48043 17.1 2.73478 17.1 3V17C17.1 17.2652 16.9999 17.5196 16.8217 17.7071C16.6436 17.8946 16.4019 18 16.15 18H10.4499C10.198 18 9.95631 18.1054 9.77815 18.2929C9.59999 18.4804 9.4999 18.7348 9.4999 19C9.4999 19.2652 9.59999 19.5196 9.77815 19.7071C9.95631 19.8946 10.198 20 10.4499 20H16.15C16.9058 20 17.6308 19.6839 18.1652 19.1213C18.6997 18.5587 19 17.7956 19 17V3C19 2.20435 18.6997 1.44129 18.1652 0.87868C17.6308 0.316071 16.9058 0 16.15 0Z" fill="#2F2F2F"/>
<path d="M5.4215 13.293C5.51224 13.3852 5.58461 13.4956 5.6344 13.6176C5.68419 13.7396 5.7104 13.8708 5.7115 14.0036C5.71259 14.1364 5.68856 14.2681 5.64079 14.391C5.59302 14.5138 5.52248 14.6255 5.43328 14.7194C5.34408 14.8133 5.23801 14.8875 5.12126 14.9378C5.00451 14.9881 4.87941 15.0134 4.75327 15.0122C4.62712 15.0111 4.50246 14.9835 4.38656 14.9311C4.27065 14.8787 4.16583 14.8025 4.07819 14.707L0.27815 10.707C0.100051 10.5195 0 10.2652 0 10C0 9.73484 0.100051 9.48053 0.27815 9.293L4.07819 5.293C4.16583 5.19749 4.27065 5.12131 4.38656 5.0689C4.50246 5.01649 4.62712 4.9889 4.75327 4.98775C4.87941 4.9866 5.00451 5.0119 5.12126 5.06218C5.23801 5.11246 5.34408 5.18671 5.43328 5.2806C5.52248 5.3745 5.59302 5.48615 5.64079 5.60905C5.68856 5.73194 5.71259 5.86362 5.7115 5.9964C5.7104 6.12918 5.68419 6.2604 5.6344 6.3824C5.58461 6.50441 5.51224 6.61475 5.4215 6.707L3.24313 9H14.2499C14.5019 9 14.7435 9.10536 14.9217 9.29289C15.0999 9.48043 15.2 9.73478 15.2 10C15.2 10.2652 15.0999 10.5196 14.9217 10.7071C14.7435 10.8946 14.5019 11 14.2499 11H3.24313L5.4215 13.293Z" fill="#2F2F2F"/>
</svg>
